<svg id="レイヤー_1" data-name="レイヤー 1" xmlns="http://www.w3.org/2000/svg" viewBox="0 0 259.39 221.5"><defs><style>.cls-1{fill:none;stroke:#666;}.cls-2{isolation:isolate;}.cls-3{fill:#777;}.cls-4{fill:#eee;}.cls-5{fill:#666;}.cls-6{fill:#fff;}</style></defs><title>floor</title><line class="cls-1" x1="159.91" y1="9.79" x2="159.91" y2="185.79"/><g class="cls-2"><polygon class="cls-3" points="138.13 92.95 137.27 91.48 144.54 95.35 145.39 96.82 138.13 92.95"/><polygon class="cls-3" points="18.27 193.24 17.42 191.77 137.27 91.48 138.13 92.95 18.27 193.24"/><polygon class="cls-4" points="25.54 197.1 24.68 195.63 144.54 95.35 145.39 96.82 25.54 197.1"/><polygon class="cls-4" points="18.27 193.24 17.42 191.77 24.68 195.63 25.54 197.1 18.27 193.24"/><path class="cls-3" d="M172.39,129.71,51.05,231.24l-8.3-4.42L164.09,125.3ZM44,226.48l7.27,3.86L171.13,130.06l-7.26-3.87L44,226.48" transform="translate(-26.59 -34.71)"/><polygon class="cls-4" points="137.27 91.48 144.54 95.35 24.68 195.63 17.42 191.77 137.27 91.48"/><polygon class="cls-3" points="25.32 198 24.46 196.53 145.79 95 146.65 96.47 25.32 198"/><polygon class="cls-3" points="17.02 193.58 16.16 192.11 24.46 196.53 25.32 198 17.02 193.58"/></g><g class="cls-2"><polygon class="cls-3" points="157.75 17 156.89 15.53 164.16 19.39 165.01 20.86 157.75 17"/><polygon class="cls-3" points="72.67 88.19 71.81 86.72 156.89 15.53 157.75 17 72.67 88.19"/><polygon class="cls-4" points="79.93 92.05 79.07 90.58 164.16 19.39 165.01 20.86 79.93 92.05"/><polygon class="cls-4" points="156.89 15.53 164.16 19.39 79.07 90.58 71.81 86.72 156.89 15.53"/><polygon class="cls-4" points="72.67 88.19 71.81 86.72 79.07 90.58 79.93 92.05 72.67 88.19"/><polygon class="cls-3" points="79.71 92.95 78.85 91.48 165.41 19.05 166.27 20.52 79.71 92.95"/><polygon class="cls-3" points="71.4 88.53 70.55 87.06 78.85 91.48 79.71 92.95 71.4 88.53"/><path class="cls-3" d="M192,53.76l-86.56,72.43-8.31-4.42L183.7,49.34ZM98.4,121.43l7.27,3.86L190.75,54.1l-7.26-3.86L98.4,121.43" transform="translate(-26.59 -34.71)"/></g><g class="cls-2"><polygon class="cls-5" points="160.05 9.3 159.94 12.25 17.79 17.78 17.9 14.83 160.05 9.3"/><polygon class="cls-5" points="219.03 36.81 218.92 39.76 159.94 12.25 160.05 9.3 219.03 36.81"/><polygon class="cls-4" points="76.88 42.33 76.78 45.28 17.79 17.78 17.9 14.83 76.88 42.33"/><polygon class="cls-4" points="219.03 36.81 76.88 42.33 17.9 14.83 160.05 9.3 219.03 36.81"/><path class="cls-5" d="M187.18,43.8l59.75,27.86-144,5.6L43.18,49.39ZM103.48,77l142.14-5.52L186.64,44,44.49,49.54l59,27.5" transform="translate(-26.59 -34.71)"/><polygon class="cls-4" points="219.03 36.81 218.92 39.76 76.78 45.28 76.88 42.33 219.03 36.81"/><polygon class="cls-5" points="76.34 42.55 76.23 45.5 16.47 17.63 16.58 14.68 76.34 42.55"/><polygon class="cls-5" points="220.34 36.95 220.23 39.9 76.23 45.5 76.34 42.55 220.34 36.95"/></g><g class="cls-2"><polygon class="cls-5" points="160.05 73.3 159.94 76.25 17.78 81.78 17.89 78.83 160.05 73.3"/><polygon class="cls-5" points="219.03 100.81 218.92 103.75 159.94 76.25 160.05 73.3 219.03 100.81"/><polygon class="cls-4" points="76.88 106.33 76.77 109.28 17.78 81.78 17.89 78.83 76.88 106.33"/><polygon class="cls-4" points="219.03 100.81 76.88 106.33 17.89 78.83 160.05 73.3 219.03 100.81"/><path class="cls-5" d="M187.18,107.79l59.75,27.87-144,5.6L43.18,113.39ZM103.47,141l142.15-5.52-59-27.51L44.48,113.54l59,27.5" transform="translate(-26.59 -34.71)"/><polygon class="cls-4" points="219.03 100.81 218.92 103.75 76.77 109.28 76.88 106.33 219.03 100.81"/><polygon class="cls-5" points="76.34 106.55 76.23 109.5 16.47 81.63 16.58 78.68 76.34 106.55"/><polygon class="cls-5" points="220.34 100.95 220.23 103.9 76.23 109.5 76.34 106.55 220.34 100.95"/></g><g class="cls-2"><polygon class="cls-5" points="160.04 131.3 159.93 134.25 17.79 139.78 17.89 136.83 160.04 131.3"/><polygon class="cls-5" points="219.03 158.81 218.92 161.76 159.93 134.25 160.04 131.3 219.03 158.81"/><polygon class="cls-6" points="76.88 164.33 76.77 167.28 17.79 139.78 17.89 136.83 76.88 164.33"/><polygon class="cls-6" points="219.03 158.81 76.88 164.33 17.89 136.83 160.04 131.3 219.03 158.81"/><path class="cls-5" d="M187.17,165.79l59.76,27.87-144,5.6L43.18,171.39ZM103.47,199l142.15-5.52-59-27.51L44.49,171.54l59,27.5" transform="translate(-26.59 -34.71)"/><polygon class="cls-6" points="219.03 158.81 218.92 161.76 76.77 167.28 76.88 164.33 219.03 158.81"/><polygon class="cls-5" points="76.34 164.55 76.23 167.5 16.48 139.63 16.59 136.68 76.34 164.55"/><polygon class="cls-5" points="220.33 158.95 220.22 161.9 76.23 167.5 76.34 164.55 220.33 158.95"/></g><g class="cls-2"><polygon class="cls-5" points="160.04 185.3 159.93 188.25 17.79 193.78 17.89 190.83 160.04 185.3"/><polygon class="cls-5" points="219.03 212.81 218.92 215.76 159.93 188.25 160.04 185.3 219.03 212.81"/><polygon class="cls-6" points="76.88 218.33 76.77 221.28 17.79 193.78 17.89 190.83 76.88 218.33"/><polygon class="cls-6" points="219.03 212.81 76.88 218.33 17.89 190.83 160.04 185.3 219.03 212.81"/><path class="cls-5" d="M187.17,219.79l59.76,27.87-144,5.6L43.18,225.39ZM103.47,253l142.15-5.52-59-27.51L44.49,225.54l59,27.5" transform="translate(-26.59 -34.71)"/><polygon class="cls-6" points="219.03 212.81 218.92 215.76 76.77 221.28 76.88 218.33 219.03 212.81"/><polygon class="cls-5" points="76.34 218.55 76.23 221.5 16.48 193.63 16.59 190.68 76.34 218.55"/><polygon class="cls-5" points="220.33 212.95 220.22 215.9 76.23 221.5 76.34 218.55 220.33 212.95"/></g><path d="M256.45,43.15h.64c.22,2.4,1.18,3.53,3,3.53a2.06,2.06,0,0,0,2.25-2.21c0-1.08-.62-1.74-2.62-2.72a12.58,12.58,0,0,1-2.1-1.13,2.91,2.91,0,0,1-1.31-2.55,3.24,3.24,0,0,1,1.89-3,4.61,4.61,0,0,1,2.05-.37,8.33,8.33,0,0,1,1.95.27,2.51,2.51,0,0,0,.56.07,2.55,2.55,0,0,0,1-.23l-.13,3.59h-.64a4,4,0,0,0-.54-2,2.48,2.48,0,0,0-2.21-1.27,2,2,0,0,0-2.08,2.08,1.82,1.82,0,0,0,.53,1.35,7.27,7.27,0,0,0,2.08,1.23,8.72,8.72,0,0,1,2.65,1.63,3,3,0,0,1,.84,2.23,3.16,3.16,0,0,1-1.12,2.57,4.66,4.66,0,0,1-2.93.92,9.74,9.74,0,0,1-2.16-.27,3.08,3.08,0,0,0-.61-.05,5.3,5.3,0,0,0-1.06.14Z" transform="translate(-26.59 -34.71)"/><path d="M268.47,44.41a4.22,4.22,0,0,0,.16,1.44.85.85,0,0,0,.78.59,1.88,1.88,0,0,0,1.12-.49l.22.4a3.29,3.29,0,0,1-2.19.8,1.94,1.94,0,0,1-1.81-.88,5,5,0,0,1-.24-2.21v-5h-.91v-.48a1.71,1.71,0,0,0,1.52-.84,4.31,4.31,0,0,0,.59-1.72l.8-.08c0,.66,0,1.15,0,2.61h1.93v.51h-1.93Z" transform="translate(-26.59 -34.71)"/><path d="M274.75,45.8a1.35,1.35,0,1,1-2.7,0,1.35,1.35,0,0,1,2.7,0Z" transform="translate(-26.59 -34.71)"/><path d="M278.24,46.46a2.33,2.33,0,0,0,1.2-.19c.37-.2.48-.61.48-1.64V37.27a4.6,4.6,0,0,0,0-1c-.07-.35-.28-.43-1.09-.43h-.44v-.45c1.53-.13,2.69-.29,3.75-.48-.1,1.14-.14,2.48-.14,4v5.65c0,1,.09,1.38.38,1.6s.42.21,1.23.23v.45h-5.33Z" transform="translate(-26.59 -34.71)"/><path d="M257.45,102.15h.64c.22,2.4,1.18,3.53,3,3.53a2.06,2.06,0,0,0,2.25-2.21c0-1.08-.62-1.74-2.62-2.72a12.58,12.58,0,0,1-2.1-1.13,2.91,2.91,0,0,1-1.31-2.55,3.24,3.24,0,0,1,1.89-3,4.61,4.61,0,0,1,2.05-.37,8.33,8.33,0,0,1,1.95.27,2.51,2.51,0,0,0,.56.07,2.55,2.55,0,0,0,1-.23l-.13,3.59h-.64a4,4,0,0,0-.54-2,2.48,2.48,0,0,0-2.21-1.27,2,2,0,0,0-2.08,2.08,1.82,1.82,0,0,0,.53,1.35,7.27,7.27,0,0,0,2.08,1.23,8.72,8.72,0,0,1,2.65,1.63,3,3,0,0,1,.84,2.23,3.16,3.16,0,0,1-1.12,2.57,4.66,4.66,0,0,1-2.93.92,9.74,9.74,0,0,1-2.16-.27,3.08,3.08,0,0,0-.61,0,5.3,5.3,0,0,0-1.06.14Z" transform="translate(-26.59 -34.71)"/><path d="M269.47,103.41a4.22,4.22,0,0,0,.16,1.44.85.85,0,0,0,.78.59,1.88,1.88,0,0,0,1.12-.49l.22.4a3.29,3.29,0,0,1-2.19.8,1.94,1.94,0,0,1-1.81-.88,5,5,0,0,1-.24-2.21v-5h-.91v-.48a1.71,1.71,0,0,0,1.52-.84,4.31,4.31,0,0,0,.59-1.72l.8-.08c0,.66,0,1.15,0,2.61h1.93v.51h-1.93Z" transform="translate(-26.59 -34.71)"/><path d="M275.75,104.8a1.35,1.35,0,1,1-2.7,0,1.35,1.35,0,0,1,2.7,0Z" transform="translate(-26.59 -34.71)"/><path d="M277.77,105.91a7,7,0,0,1,1.07-3.12A14.61,14.61,0,0,1,282,99.58a4.55,4.55,0,0,0,1.33-1.47,3.34,3.34,0,0,0,.34-1.47c0-1.39-.76-2.31-1.89-2.31a1.45,1.45,0,0,0-1.49,1.08,4.23,4.23,0,0,0-.18,1.45c0,.63-.32.88-1,.88S278,97.47,278,96.9a2.75,2.75,0,0,1,1.33-2.26,4.65,4.65,0,0,1,2.66-.72c2.41,0,3.85,1.1,3.85,3a3,3,0,0,1-.72,2,6.68,6.68,0,0,1-1.76,1.31,14.84,14.84,0,0,0-3.33,2.18,4.27,4.27,0,0,0-1.26,1.8h4.64c1.31,0,1.78-.41,2.07-1.85l.54.11-.56,3.46Z" transform="translate(-26.59 -34.71)"/><line class="cls-1" x1="173.99" y1="28.43" x2="224.86" y2="13.79"/><line class="cls-1" x1="174.58" y1="88.94" x2="226.41" y2="71.79"/><line class="cls-1" x1="75.91" y1="44.79" x2="75.91" y2="220.79"/><line class="cls-1" x1="219.91" y1="38.79" x2="219.91" y2="214.79"/><line class="cls-1" x1="16.91" y1="16.79" x2="16.91" y2="192.79"/><path d="M27.87,223.06a1.4,1.4,0,0,0,.75-.12c.23-.12.3-.38.3-1v-4.59a2.83,2.83,0,0,0,0-.6c0-.22-.17-.27-.68-.27h-.27v-.28c.95-.08,1.68-.18,2.34-.3q-.09,1.06-.09,2.52v3.52c0,.61.06.86.24,1s.26.13.77.14v.28H27.87Z" transform="translate(-26.59 -34.71)"/><path d="M35.08,222c0,.91.1,1,.94,1v.26H32.89v-.26c.82,0,.9-.12.9-1v-4.87c0-.92-.1-1-.9-1v-.26h5.49l.15,2.07-.35,0c-.24-1.35-.79-1.81-2.17-1.81h-.93v3.16h.77c1.06,0,1.34-.22,1.44-1.15h.32v2.6h-.32c-.12-1-.36-1.16-1.44-1.16h-.77Z" transform="translate(-26.59 -34.71)"/><path d="M27,169.34a4.35,4.35,0,0,1,.67-2,8.87,8.87,0,0,1,2-2,3,3,0,0,0,.83-.92,2.07,2.07,0,0,0,.21-.92c0-.87-.47-1.44-1.18-1.44a.91.91,0,0,0-.93.67,2.74,2.74,0,0,0-.11.91c0,.39-.2.55-.64.55s-.71-.17-.71-.53a1.73,1.73,0,0,1,.83-1.41,2.9,2.9,0,0,1,1.66-.45c1.51,0,2.41.69,2.41,1.85a1.85,1.85,0,0,1-.45,1.26,4.2,4.2,0,0,1-1.1.82,9.18,9.18,0,0,0-2.08,1.35,2.67,2.67,0,0,0-.79,1.13h2.9c.82,0,1.11-.26,1.29-1.16l.34.07-.35,2.16Z" transform="translate(-26.59 -34.71)"/><path d="M35.08,168c0,.91.1,1,.94,1v.26H32.89v-.26c.82,0,.9-.12.9-1v-4.87c0-.92-.1-1-.9-1v-.26h5.49l.15,2.07-.35,0c-.24-1.35-.79-1.81-2.17-1.81h-.93v3.16h.77c1.06,0,1.34-.22,1.44-1.15h.32v2.6h-.32c-.12-1-.36-1.16-1.44-1.16h-.77Z" transform="translate(-26.59 -34.71)"/><path d="M29.69,107.52c1.52.11,2.3.77,2.3,1.92s-1,2.06-2.61,2.06c-1.42,0-2.45-.65-2.45-1.55,0-.38.28-.6.75-.6a.61.61,0,0,1,.51.19c.06.08.06.1.08.56a1.56,1.56,0,0,0,.27.8,1,1,0,0,0,.82.34c.83,0,1.3-.67,1.3-1.83a1.71,1.71,0,0,0-.55-1.45,2.49,2.49,0,0,0-1.3-.31h-.3v-.32h.28a1.53,1.53,0,0,0,1.72-1.72c0-1-.37-1.49-1.08-1.49a.83.83,0,0,0-.79.42,1.86,1.86,0,0,0-.2.81c0,.33,0,.4-.12.5a.73.73,0,0,1-.52.15c-.46,0-.7-.17-.7-.49,0-.93,1-1.65,2.36-1.65a2.82,2.82,0,0,1,1.78.55,1.63,1.63,0,0,1,.55,1.23c0,1-.76,1.63-2.1,1.8Z" transform="translate(-26.59 -34.71)"/><path d="M35.08,110c0,.91.1,1,.94,1v.26H32.89v-.26c.82,0,.9-.12.9-1v-4.87c0-.92-.1-1-.9-1v-.26h5.49l.15,2.07-.35,0c-.24-1.35-.79-1.81-2.17-1.81h-.93v3.16h.77c1.06,0,1.34-.22,1.44-1.15h.32v2.6h-.32c-.12-1-.36-1.16-1.44-1.16h-.77Z" transform="translate(-26.59 -34.71)"/><path d="M31,47.08c0,.83.13,1,.9,1v.28h-3v-.27c.47,0,.58,0,.7-.14s.21-.37.21-.85v-.71H26.59v-.48l3.5-5H31v5h1.07v.45H31ZM29.82,42l-2.78,4h2.78Z" transform="translate(-26.59 -34.71)"/><path d="M35.08,47c0,.91.1,1,.94,1v.26H32.89v-.26c.82,0,.9-.12.9-1V42.17c0-.92-.1-1-.9-1v-.26h5.49l.15,2.07-.35,0c-.24-1.35-.79-1.81-2.17-1.81h-.93v3.16h.77c1.06,0,1.34-.22,1.44-1.15h.32v2.6h-.32c-.12-1-.36-1.16-1.44-1.16h-.77Z" transform="translate(-26.59 -34.71)"/></svg>