<svg id="レイヤー_1" data-name="レイヤー 1" xmlns="http://www.w3.org/2000/svg" viewBox="0 0 131.02 84.94"><defs><style>.cls-1{fill:red;}</style></defs><title>ax_logo</title><polygon class="cls-1" points="45.18 33.54 73.44 33.54 123.2 84.94 94.94 84.94 45.18 33.54"/><polygon class="cls-1" points="107.62 33.54 100.89 33.54 44.12 84.94 50.85 84.94 107.62 33.54"/><polygon points="120.81 33.54 111.03 33.54 54.27 84.94 64.04 84.94 120.81 33.54"/><polygon class="cls-1" points="131.02 33.54 124.29 33.54 67.52 84.94 74.25 84.94 131.02 33.54"/><path d="M245.79,407l22.59-49.22L206,406.55c-12.24,10.58-21.77,11.19-21.77,11.19s13.59,0,25.56,0c-8.39-2.84-3.65-6.62-3.65-6.62l13.12-10.28h16l-5.81,10.82c-3.11,4.87-15.42,6.08-15.42,6.08s10.38,0,38.92,0c-12.31-1.89-7.14-10.79-7.14-10.79m-22.18-10.14,21.78-17.58-8.52,17.58Z" transform="translate(-184.26 -357.73)"/></svg>