<svg id="レイヤー_1" data-name="レイヤー 1" xmlns="http://www.w3.org/2000/svg" viewBox="0 0 235 55"><defs><style>.cls-1{fill:none;}.cls-1,.cls-2{stroke:#fff;stroke-miterlimit:10;}.cls-2{fill:#231815;opacity:0.3;}.cls-3{font-size:16px;font-family:HiraKakuPro-W6-83pv-RKSJ-H, Hiragino Kaku Gothic Pro;}.cls-3,.cls-6{fill:#fff;}.cls-4{font-size:10px;}.cls-5{font-size:13px;}</style></defs><title>axcontacton</title><rect class="cls-1" x="0.5" y="0.5" width="230" height="50"/><rect class="cls-2" x="4.5" y="4.5" width="230" height="50"/><rect class="cls-1" x="4.5" y="4.5" width="230" height="50"/><text class="cls-3" transform="translate(61.32 41.76)">お問い合わせ<tspan class="cls-4" x="96" y="0.11">は</tspan><tspan class="cls-5" x="106" y="0.44">コチラ</tspan></text><path class="cls-6" d="M29.45,95.54l2.71,2.71L43,87.4l-2.71-2.72,6.8-6.8s3.25,3,3.47,5.36c.29,3.18-3.07,9-8.35,14.23s-11,8.63-14.22,8.34c-2.37-.22-5.36-3.47-5.36-3.47Z" transform="translate(-5.23 -63.62)"/><path class="cls-6" d="M25.24,90.3H23.39A11.68,11.68,0,0,1,35.06,78.63v1.84A9.83,9.83,0,0,0,25.24,90.3Z" transform="translate(-5.23 -63.62)"/><path class="cls-6" d="M29.54,90.3H27.69a7.39,7.39,0,0,1,7.37-7.38v1.85A5.53,5.53,0,0,0,29.54,90.3Z" transform="translate(-5.23 -63.62)"/><path class="cls-6" d="M74.82,82.21a4.1,4.1,0,0,1-.74,1.65,3.73,3.73,0,0,1-3,1.2,3.8,3.8,0,0,1-2.83-1,5.56,5.56,0,0,1,.09-7,3.83,3.83,0,0,1,2.75-1,3.89,3.89,0,0,1,2.11.53,3.44,3.44,0,0,1,1.17,1.2,3.89,3.89,0,0,1,.34.85l-1.53.35a2.33,2.33,0,0,0-.47-.95,2,2,0,0,0-1.61-.68c-1.56,0-2.51,1.22-2.51,3.25s1,3.27,2.51,3.27A2.09,2.09,0,0,0,72.88,83a2.18,2.18,0,0,0,.37-1Z" transform="translate(-5.23 -63.62)"/><path class="cls-6" d="M75.7,81.74A3.27,3.27,0,1,1,79,85.1,3.1,3.1,0,0,1,75.7,81.74Zm1.42,0c0,1.35.7,2.19,1.85,2.19s1.84-.82,1.84-2.17-.67-2.23-1.83-2.23S77.12,80.37,77.12,81.74Z" transform="translate(-5.23 -63.62)"/><path class="cls-6" d="M83.33,84.89a8.67,8.67,0,0,0,.09-1.43V80a8.6,8.6,0,0,0-.09-1.43h1.5v.59c0,.16,0,.19,0,.47a2.51,2.51,0,0,1,2.24-1.17,2.16,2.16,0,0,1,1.87.82,2.4,2.4,0,0,1,.37,1.54v2.64a9.45,9.45,0,0,0,.09,1.43H87.79a12.92,12.92,0,0,0,.07-1.43V81a1.83,1.83,0,0,0-.18-1,1,1,0,0,0-.93-.45c-.79,0-1.44.55-1.92,1.64v2.22a9.22,9.22,0,0,0,.09,1.43Z" transform="translate(-5.23 -63.62)"/><path class="cls-6" d="M93.05,76.88A10.78,10.78,0,0,0,93,78.23v.34h.46a6.89,6.89,0,0,0,1.11-.06V79.8a6.64,6.64,0,0,0-1.08-.06H93v3.41c0,.54.2.74.73.74a1.45,1.45,0,0,0,.8-.25l.2,1.17a3.42,3.42,0,0,1-1.38.23c-1.26,0-1.77-.45-1.77-1.6v-3.7h-.42a6.14,6.14,0,0,0-1,.06V78.51a5.57,5.57,0,0,0,1,.06h.41v-.34a11.15,11.15,0,0,0-.08-1.35Z" transform="translate(-5.23 -63.62)"/><path class="cls-6" d="M99.69,84.17a2.39,2.39,0,0,1-1.17.7,4.25,4.25,0,0,1-1,.13c-1.34,0-2.16-.7-2.16-1.85a2,2,0,0,1,1.25-1.78,8.18,8.18,0,0,1,3.1-.44v-.56c0-.64-.43-1-1.27-1a2,2,0,0,0-1.14.32,1.18,1.18,0,0,0-.44.7l-1.41-.25A2.29,2.29,0,0,1,96.3,79a3.28,3.28,0,0,1,2.1-.56,2.83,2.83,0,0,1,2.17.65,1.84,1.84,0,0,1,.52,1.51v3a9.77,9.77,0,0,0,.08,1.38H99.69Zm0-2.29c-2.1.05-2.93.41-2.93,1.27,0,.52.39.84,1,.84a2.19,2.19,0,0,0,1.53-.59,1.28,1.28,0,0,0,.4-1Z" transform="translate(-5.23 -63.62)"/><path class="cls-6" d="M106.87,80.69a2,2,0,0,0-.34-.68,1.37,1.37,0,0,0-1.13-.5c-1.08,0-1.75.85-1.75,2.21s.68,2.22,1.79,2.22a1.5,1.5,0,0,0,1.27-.61,1.69,1.69,0,0,0,.22-.55l1.36.27a3,3,0,0,1-.46.94,2.88,2.88,0,0,1-2.42,1.11,3.06,3.06,0,0,1-3.19-3.35,3.59,3.59,0,0,1,.93-2.54,3,3,0,0,1,2.21-.83,2.85,2.85,0,0,1,2.47,1.18,3.66,3.66,0,0,1,.38.81Z" transform="translate(-5.23 -63.62)"/><path class="cls-6" d="M111.67,76.88a10.78,10.78,0,0,0-.08,1.35v.34h.46a6.89,6.89,0,0,0,1.11-.06V79.8a6.58,6.58,0,0,0-1.07-.06h-.5v3.41c0,.54.2.74.73.74a1.45,1.45,0,0,0,.8-.25l.2,1.17a3.42,3.42,0,0,1-1.38.23c-1.26,0-1.77-.45-1.77-1.6v-3.7h-.42a6.22,6.22,0,0,0-1,.06V78.51a5.57,5.57,0,0,0,1,.06h.41v-.34a11.15,11.15,0,0,0-.08-1.35Z" transform="translate(-5.23 -63.62)"/></svg>