<svg id="レイヤー_1" data-name="レイヤー 1" xmlns="http://www.w3.org/2000/svg" viewBox="0 0 235 55"><defs><style>.cls-1{fill:none;}.cls-1,.cls-2{stroke:#fff;stroke-miterlimit:10;}.cls-2{opacity:0.3;}.cls-3{font-size:13px;}.cls-3,.cls-5,.cls-6{fill:#fff;}.cls-3,.cls-6{font-family:HiraKakuPro-W6-83pv-RKSJ-H, Hiragino Kaku Gothic Pro;}.cls-4{font-size:10px;}.cls-6{font-size:11px;}</style></defs><rect class="cls-1" x="0.5" y="0.5" width="230" height="50"/><rect class="cls-2" x="4.5" y="4.5" width="230" height="50"/><rect class="cls-1" x="4.5" y="4.5" width="230" height="50"/><text class="cls-3" transform="translate(61.32 44.15)">レッスン予約<tspan class="cls-4" x="78" y="-1.14">は</tspan><tspan x="88" y="-0.81">コチラ</tspan></text><path class="cls-5" d="M41.51,98.58l7.81-6.21-7.81-6.21Zm1.76-8.48,2.86,2.27-2.86,2.27Z" transform="translate(-5.23 -63.62)"/><path class="cls-5" d="M37.29,80.62a17,17,0,0,0-10.78-4.16h-.88v3.59a28,28,0,0,0-3.51.88v25.53a24.14,24.14,0,0,1,14.78-.33l.22.06.21-.06a24.08,24.08,0,0,1,14.79.33V80.93A25.56,25.56,0,0,0,37.29,80.62ZM23.88,103.77V82.6c.58-.16,1.16-.29,1.75-.4v19.72h.88a14.23,14.23,0,0,1,5.58,1.16,24.72,24.72,0,0,0-8.21.69Zm12.36-.64a16.45,16.45,0,0,0-8.85-3.31V78.61a15.37,15.37,0,0,1,8.85,3.72Zm14.12.64a25.11,25.11,0,0,0-12.36,0V82.6a23.56,23.56,0,0,1,12.36,0Z" transform="translate(-5.23 -63.62)"/><text class="cls-6" transform="translate(61.67 21.46)">Lesson</text></svg>