<svg id="レイヤー_1" data-name="レイヤー 1" xmlns="http://www.w3.org/2000/svg" viewBox="0 0 235 55"><defs><style>.cls-1{fill:none;}.cls-1,.cls-2{stroke:#fff;stroke-miterlimit:10;}.cls-2{fill:#231815;opacity:0.3;}.cls-3{fill:#fff;}</style></defs><title>axreserv</title><rect class="cls-1" x="0.5" y="0.5" width="230" height="50"/><rect class="cls-2" x="4.5" y="4.5" width="230" height="50"/><rect class="cls-1" x="4.5" y="4.5" width="230" height="50"/><path class="cls-3" d="M78.25,104.72A30.81,30.81,0,0,0,73.33,100a19,19,0,0,1-6.1,4.63,6.49,6.49,0,0,0-1.29-1.78,13.18,13.18,0,0,0,3.2-1.76,15.5,15.5,0,0,0,5.38-6.52l.17-.41-5.3.09a13.21,13.21,0,0,0-1.74.13l-.06-2a6.87,6.87,0,0,0,1.4.1h.39L75,92.32a3.43,3.43,0,0,0,1.43-.18l1,1.09a3.17,3.17,0,0,0-.51.87,21.15,21.15,0,0,1-2.5,4.41,26.38,26.38,0,0,1,3,2.32c.39.36.39.36,2.33,2.23Z" transform="translate(-5.23 -63.62)"/><path class="cls-3" d="M94.9,93.78a2.7,2.7,0,0,0-.49,1.07,28.22,28.22,0,0,1-2,4.4,15.67,15.67,0,0,1-7.3,6.12,5,5,0,0,0-1.33-1.65,16.13,16.13,0,0,0,3.12-1.6,11.83,11.83,0,0,0,2.63-2.23,18.76,18.76,0,0,0-3.29-2.29l1.22-1.42a20.7,20.7,0,0,1,3.22,2.14,15.39,15.39,0,0,0,1.79-3.78l-5,0A16.6,16.6,0,0,1,83.7,98.9a5.15,5.15,0,0,0-1.6-1.28,13.77,13.77,0,0,0,4-4.56A9.43,9.43,0,0,0,87,90.83l2.08.46c-.17.29-.17.29-.48.9a7.68,7.68,0,0,1-.38.77c.25,0,.25,0,4.16-.06a4.14,4.14,0,0,0,1.41-.2Z" transform="translate(-5.23 -63.62)"/><path class="cls-3" d="M99.43,95.49a24.92,24.92,0,0,1,4.25,2.18l-1,1.8a18.79,18.79,0,0,0-4.34-2.33Zm-.73,7.17a14.26,14.26,0,0,0,4.63-1,11,11,0,0,0,6.48-7.06A8.07,8.07,0,0,0,111.48,96c-2,4.84-5.36,7.47-11.1,8.59a10.94,10.94,0,0,0-1.12.27Zm2-11a26.38,26.38,0,0,1,4.26,2.06l-1,1.76a19.48,19.48,0,0,0-4.27-2.19Zm8.32-.33a10.65,10.65,0,0,1,1.68,2.36l-1.12.59a10.69,10.69,0,0,0-1.68-2.38Zm2.48,1.94a12,12,0,0,0-1.63-2.32l1.07-.56a9.52,9.52,0,0,1,1.67,2.26Z" transform="translate(-5.23 -63.62)"/><path class="cls-3" d="M122.05,98.21c0-.08,0-.9,0-1.15a9.75,9.75,0,0,1-1.63,2.24,21.75,21.75,0,0,1-3.16,2.78,22.14,22.14,0,0,1-2.37,1.48,4.61,4.61,0,0,0-1.32-1.67,17,17,0,0,0,5-3.47,15.89,15.89,0,0,0,2.14-2.64h-4.38a14.31,14.31,0,0,0-2,.08v-2a8.72,8.72,0,0,0,2,.12H122V92.74a13.35,13.35,0,0,0-.08-1.48H124a10.13,10.13,0,0,0-.06,1.36v.1l0,1.3h1.61a8.66,8.66,0,0,0,1.89-.12v1.94a16.25,16.25,0,0,0-1.84-.06H124l.08,7.42c0,.79,0,1.4.1,1.84H122a9.3,9.3,0,0,0,.1-1.53v-.29l0-4.79Z" transform="translate(-5.23 -63.62)"/><path class="cls-3" d="M142.71,92.48A18.59,18.59,0,0,1,140.85,94c-1,.66-1.65,1.1-2.48,1.62l.75.49-.48.48h2.87a13,13,0,0,0,1.78-.08l1,1.08s-.36.46-1,1.36a15.11,15.11,0,0,1-2.54,2.64,5.07,5.07,0,0,0-1.41-1.2,10.25,10.25,0,0,0,2.32-2.18h-3.71v5.51c0,1.31-.53,1.66-2.5,1.66-.53,0-1.33,0-1.82,0a6.61,6.61,0,0,0-.47-1.77,16.63,16.63,0,0,0,2.34.16c.53,0,.64-.08.64-.44V98.21h-4.24a15.49,15.49,0,0,0-2,.1V96.5a17.21,17.21,0,0,0,2.1.09h4.94a32.6,32.6,0,0,0-3.52-2.27l1.17-1.09c1.06.58,1.41.8,2.35,1.39A17.26,17.26,0,0,0,139.43,93h-6.24a13.47,13.47,0,0,0-1.94.08V91.28a12.91,12.91,0,0,0,2,.1h7.12a9.44,9.44,0,0,0,1.38-.07Z" transform="translate(-5.23 -63.62)"/><path class="cls-3" d="M147.75,99.94a18.1,18.1,0,0,1-.79,4.74l-1.42-.66a15.49,15.49,0,0,0,.75-4.31Zm-2.13-2.42a4.31,4.31,0,0,0,.68,0l.64,0c.55-.67.61-.75.93-1.17A14.36,14.36,0,0,0,145.68,94l.91-1.33.48.56a11.81,11.81,0,0,0,1.33-2.59l1.52.62c-.09.14-.16.26-.33.58a21.85,21.85,0,0,1-1.49,2.44c.27.32.45.52.67.8a18.55,18.55,0,0,0,1.73-2.8l1.47.85a8.67,8.67,0,0,0-.53.74,39.39,39.39,0,0,1-2.7,3.6c.94,0,1,0,1.82-.14a9.1,9.1,0,0,0-.46-1.09l1.2-.48a22.52,22.52,0,0,1,1.26,3.12l-1.34.56c-.08-.37-.11-.5-.18-.75l-1.13.11v5a12.51,12.51,0,0,0,.09,1.71h-1.76a12.22,12.22,0,0,0,.1-1.71V99l-1.51.11a9.27,9.27,0,0,0-1,.1Zm6.19,2.1a39.85,39.85,0,0,1,.77,4.08l-1.46.35a35.17,35.17,0,0,0-.61-4.11Zm2.67-4.87a10.9,10.9,0,0,1-1.6,2.53A4.73,4.73,0,0,0,151.6,96a10.32,10.32,0,0,0,1.89-3.19,9.94,9.94,0,0,0,.58-2l1.79.32a5.93,5.93,0,0,0-.21.66c-.21.66-.27.85-.46,1.34h3.49A8.6,8.6,0,0,0,160,93a22.19,22.19,0,0,0-.08,2.79c0,1.82-.19,4.6-.37,5.92-.25,1.84-.54,2.72-1.07,3.13a3.41,3.41,0,0,1-2.05.42c-.42,0-.91,0-1.49-.06a6.43,6.43,0,0,0-.45-1.8,11.94,11.94,0,0,0,2.1.21c.72,0,.9-.19,1.09-1.18a44.46,44.46,0,0,0,.51-7.72Zm.74,6.69a17.56,17.56,0,0,0-1.82-4.06l1.39-.77a18.5,18.5,0,0,1,2,4Z" transform="translate(-5.23 -63.62)"/><path class="cls-3" d="M162.46,104.56c0-.12,0-.19-.07-.47a23.5,23.5,0,0,1-.32-3.81,20.89,20.89,0,0,1,.23-3.18c.06-.36.06-.36.32-1.71a6,6,0,0,0,.14-.89v0l1.61.17a19.52,19.52,0,0,0-1,6c0,.43,0,.43,0,.62v.2c0,.09,0,.11,0,.25h0l.15-.35c0-.09.08-.22.14-.41l.23-.54a3.26,3.26,0,0,0,.14-.37l1,.44a10,10,0,0,0-1.19,3.67,2.85,2.85,0,0,0,0,.33Zm2.71-7.85a8.79,8.79,0,0,0,2.17.19c.42,0,.68,0,1.1,0,0-.7,0-1.3,0-1.8a2.72,2.72,0,0,0,0-.57l1.5,0a12,12,0,0,0-.08,1.77v.55a11.9,11.9,0,0,0,1.62-.29l.26-.1.1,0,0,1.35-.34.07c-.41.08-1,.19-1.67.26v.26c0,.67,0,.7.12,2.71a10.07,10.07,0,0,1,1.88,1.09,2.45,2.45,0,0,0,.34.21l-.58,1.45a4.41,4.41,0,0,0-.9-.77l-.75-.49v.17a2.1,2.1,0,0,1-.1.67,2.25,2.25,0,0,1-2.28,1.13c-1.57,0-2.53-.75-2.53-2s1-2,2.47-2a2.83,2.83,0,0,1,1.07.17c0-.3-.05-.89-.1-2.56l-1.08,0c-.44,0-.92,0-1.48-.06h-.36l-.21,0h-.19Zm2.43,5c-.77,0-1.25.3-1.25.79s.43.75,1.11.75a1.18,1.18,0,0,0,1-.38,1,1,0,0,0,.15-.64v-.33A2.54,2.54,0,0,0,167.6,101.73Z" transform="translate(-5.23 -63.62)"/><path class="cls-3" d="M176.53,103.83a15.88,15.88,0,0,0-1.72.06v-1.81a9.31,9.31,0,0,0,1.75.1h6.37V96.07H176.8a12.89,12.89,0,0,0-1.79.07V94.32a9.6,9.6,0,0,0,1.8.1h6.74c.73,0,.73,0,1.22,0a8.93,8.93,0,0,0,0,1.16v7.69a8.87,8.87,0,0,0,.07,1.45h-1.88v-.86Z" transform="translate(-5.23 -63.62)"/><path class="cls-3" d="M198.61,94.21c-.16,0-.16,0-1.17.38a17.88,17.88,0,0,1-2.34.57c0,1.9,0,1.9,0,2.37h3a8.07,8.07,0,0,0,1.7-.1v1.68a13.83,13.83,0,0,0-1.68-.07H195a7.42,7.42,0,0,1-.94,3.06,7.26,7.26,0,0,1-2.28,2.23,9.84,9.84,0,0,1-1.31.7,4.46,4.46,0,0,0-1.21-1.49,6.43,6.43,0,0,0,2.17-1.18A4.47,4.47,0,0,0,193,100c.05-.23.09-.47.15-.94h-3.46a14,14,0,0,0-1.68.07V97.43a8.24,8.24,0,0,0,1.71.1h3.58c0-.59,0-1.13,0-2.11a32.69,32.69,0,0,1-3.88.32,5.77,5.77,0,0,0-.52-1.51l.87,0a24.19,24.19,0,0,0,6-.81,7.15,7.15,0,0,0,1.69-.66Z" transform="translate(-5.23 -63.62)"/><path class="cls-3" d="M213.36,97.39a6.49,6.49,0,0,0-.4.88,9.89,9.89,0,0,1-3.24,4.74,12.66,12.66,0,0,1-3.67,1.9,4.91,4.91,0,0,0-1.1-1.62,9.15,9.15,0,0,0,3.9-1.85,7.27,7.27,0,0,0,2.25-3.28h-6.82a15.41,15.41,0,0,0-1.79.07V96.52a9.37,9.37,0,0,0,1.82.1H211a6.65,6.65,0,0,0,1.58-.12Zm-9.68-4.24a8.19,8.19,0,0,0,1.64.1h4.89a8.14,8.14,0,0,0,1.63-.1v1.72a10.2,10.2,0,0,0-1.61-.07h-4.94a10.2,10.2,0,0,0-1.61.07Z" transform="translate(-5.23 -63.62)"/><path class="cls-3" d="M71.63,84.29a8.1,8.1,0,0,0-.52-1.6c-.53-1.38-.88-1.75-1.65-1.75H68v2a7.8,7.8,0,0,0,.08,1.31H66.56a7.83,7.83,0,0,0,.08-1.3V77.61a8.9,8.9,0,0,0-.08-1.3c.42,0,.73,0,1.28,0h2.4c1.51,0,2.38.76,2.38,2.08a2,2,0,0,1-.51,1.48,2.12,2.12,0,0,1-1.1.58c.62.2.81.48,1.8,2.82.08.18.33.72.47,1ZM70,79.8a1.35,1.35,0,0,0,1-.36,1.21,1.21,0,0,0,.31-.87c0-.72-.4-1.09-1.22-1.09H68V79.8Z" transform="translate(-5.23 -63.62)"/><path class="cls-3" d="M75.23,81.75a1.86,1.86,0,0,0,.37,1.12,1.68,1.68,0,0,0,2.45.06,1.45,1.45,0,0,0,.29-.52l1.17.38a2.81,2.81,0,0,1-.6.92,2.86,2.86,0,0,1-2.06.77,3.06,3.06,0,0,1-.07-6.1A2.53,2.53,0,0,1,79.26,80a4.11,4.11,0,0,1,.29,1.52s0,0,0,.28Zm3-1a1.57,1.57,0,0,0-.44-1,1.43,1.43,0,0,0-1.08-.4,1.5,1.5,0,0,0-1.5,1.36Z" transform="translate(-5.23 -63.62)"/><path class="cls-3" d="M80.57,84.29a8.3,8.3,0,0,0,.08-1.3V79.85a8.22,8.22,0,0,0-.08-1.3h1.36v.53a3.91,3.91,0,0,1,0,.43,2.28,2.28,0,0,1,2-1.05,2,2,0,0,1,1.69.73,2.22,2.22,0,0,1,.34,1.4V83a7.9,7.9,0,0,0,.08,1.3H84.62a10.63,10.63,0,0,0,.07-1.3V80.77a1.64,1.64,0,0,0-.17-.88.94.94,0,0,0-.84-.41c-.72,0-1.31.5-1.75,1.49v2a8.9,8.9,0,0,0,.08,1.3Z" transform="translate(-5.23 -63.62)"/><path class="cls-3" d="M89.4,77a10.92,10.92,0,0,0-.07,1.23v.3h.42a7.12,7.12,0,0,0,1,0v1.17a5.51,5.51,0,0,0-1-.06h-.45v3.1c0,.49.18.67.66.67a1.32,1.32,0,0,0,.73-.22l.18,1.06a3.13,3.13,0,0,1-1.25.21C88.5,84.43,88,84,88,83V79.61h-.38a5,5,0,0,0-.89.06V78.5a5.69,5.69,0,0,0,.9,0H88v-.3A11.51,11.51,0,0,0,88,77Z" transform="translate(-5.23 -63.62)"/><path class="cls-3" d="M95.44,83.64a2.17,2.17,0,0,1-1.06.63,3.54,3.54,0,0,1-.93.12c-1.22,0-2-.63-2-1.68a1.77,1.77,0,0,1,1.13-1.62,7.56,7.56,0,0,1,2.82-.4v-.51c0-.58-.39-.88-1.15-.88a1.8,1.8,0,0,0-1,.29,1.09,1.09,0,0,0-.4.64L91.57,80a2.13,2.13,0,0,1,.79-1.11,3.06,3.06,0,0,1,1.91-.51,2.56,2.56,0,0,1,2,.59,1.68,1.68,0,0,1,.47,1.38V83a8,8,0,0,0,.08,1.25H95.44Zm0-2.08c-1.91,0-2.66.37-2.66,1.15,0,.47.35.76.91.76a2,2,0,0,0,1.39-.53,1.19,1.19,0,0,0,.36-.88Z" transform="translate(-5.23 -63.62)"/><path class="cls-3" d="M99.43,76.34a9.26,9.26,0,0,0-.07,1.31V83a10.3,10.3,0,0,0,.07,1.3H98a9.68,9.68,0,0,0,.07-1.3V77.64a9,9,0,0,0-.07-1.3Z" transform="translate(-5.23 -63.62)"/><path class="cls-3" d="M105.29,81.81a1.43,1.43,0,0,0,.28.88,1.78,1.78,0,0,0,1.46.59c1,0,1.6-.45,1.6-1.2a1,1,0,0,0-.5-.92,6.46,6.46,0,0,0-1.74-.49,3.53,3.53,0,0,1-1.51-.61,2,2,0,0,1-.77-1.61c0-1.39,1.12-2.29,2.84-2.29a2.93,2.93,0,0,1,2.48,1,2.64,2.64,0,0,1,.49,1.16l-1.42.17a1.46,1.46,0,0,0-.3-.71,1.6,1.6,0,0,0-1.25-.48c-.87,0-1.46.44-1.46,1.09a1,1,0,0,0,.68.9,8.51,8.51,0,0,0,1.41.36,4.41,4.41,0,0,1,1.62.61A2,2,0,0,1,110,82a2.33,2.33,0,0,1-.63,1.7,3.29,3.29,0,0,1-2.38.76,4,4,0,0,1-2.1-.52,2.35,2.35,0,0,1-.88-1.14,3.42,3.42,0,0,1-.19-.83Z" transform="translate(-5.23 -63.62)"/><path class="cls-3" d="M113.27,77a10.92,10.92,0,0,0-.07,1.23v.3h.42a7.12,7.12,0,0,0,1,0v1.17a5.51,5.51,0,0,0-1-.06h-.45v3.1c0,.49.18.67.66.67a1.32,1.32,0,0,0,.73-.22l.18,1.06a3.13,3.13,0,0,1-1.25.21c-1.15,0-1.61-.41-1.61-1.46V79.61h-.38a5,5,0,0,0-.89.06V78.5a5.69,5.69,0,0,0,.9,0h.37v-.3a11.51,11.51,0,0,0-.07-1.23Z" transform="translate(-5.23 -63.62)"/><path class="cls-3" d="M121,78.55a7.24,7.24,0,0,0-.08,1.3V83a9.62,9.62,0,0,0,.08,1.3h-1.35v-1a2.53,2.53,0,0,1-3.24.78,1.87,1.87,0,0,1-.81-1.73V79.85a9.19,9.19,0,0,0-.08-1.3H117a9,9,0,0,0-.07,1.3v2.22a1.22,1.22,0,0,0,.46,1.14,1.24,1.24,0,0,0,.55.14c.72,0,1.29-.49,1.74-1.48v-2a13,13,0,0,0-.08-1.3Z" transform="translate(-5.23 -63.62)"/><path class="cls-3" d="M126.72,83.8c0-.12,0-.23,0-.36a2.12,2.12,0,0,1-2,1,2.54,2.54,0,0,1-1.67-.51,3.1,3.1,0,0,1-1-2.51c0-1.83,1-3,2.7-3a2.38,2.38,0,0,1,1.51.46,2.55,2.55,0,0,1,.51.55c0-.12,0-.12,0-.32V77.69a10,10,0,0,0-.08-1.35h1.41a11.66,11.66,0,0,0-.07,1.34v5.26a10.5,10.5,0,0,0,.07,1.35h-1.33ZM125,83.36a1.67,1.67,0,0,0,1.33-.66,2.27,2.27,0,0,0,.4-1.34,2.08,2.08,0,0,0-.49-1.33,1.81,1.81,0,0,0-1.29-.56c-1,0-1.59.76-1.59,2S124,83.36,125,83.36Z" transform="translate(-5.23 -63.62)"/><path class="cls-3" d="M130.78,76.34v1.27h-1.47V76.34Zm0,2.21a9,9,0,0,0-.07,1.31V83a10,10,0,0,0,.07,1.31h-1.46a9,9,0,0,0,.08-1.3V79.85a8.22,8.22,0,0,0-.08-1.3Z" transform="translate(-5.23 -63.62)"/><path class="cls-3" d="M131.78,81.43a3,3,0,1,1,3,3A2.82,2.82,0,0,1,131.78,81.43Zm1.29,0c0,1.23.64,2,1.68,2s1.68-.75,1.68-2-.61-2-1.67-2S133.07,80.18,133.07,81.43Z" transform="translate(-5.23 -63.62)"/><path class="cls-3" d="M147.22,84.29a9.87,9.87,0,0,0-.52-1.6c-.54-1.38-.89-1.75-1.66-1.75h-1.49v2a7.8,7.8,0,0,0,.08,1.31h-1.49a7.83,7.83,0,0,0,.08-1.3V77.61a8.9,8.9,0,0,0-.08-1.3c.42,0,.73,0,1.28,0h2.4c1.52,0,2.38.76,2.38,2.08a2,2,0,0,1-.51,1.48,2.12,2.12,0,0,1-1.1.58c.63.2.81.48,1.8,2.82.08.18.33.72.47,1Zm-1.66-4.49a1.35,1.35,0,0,0,.95-.36,1.18,1.18,0,0,0,.32-.87c0-.72-.41-1.09-1.23-1.09h-2V79.8Z" transform="translate(-5.23 -63.62)"/><path class="cls-3" d="M150.81,81.75a1.86,1.86,0,0,0,.37,1.12,1.68,1.68,0,0,0,2.45.06,1.62,1.62,0,0,0,.29-.52l1.17.38a2.69,2.69,0,0,1-2.66,1.69,3.06,3.06,0,0,1-.07-6.1A2.54,2.54,0,0,1,154.84,80a4.11,4.11,0,0,1,.29,1.52s0,0,0,.28Zm3-1a1.51,1.51,0,0,0-.43-1,1.43,1.43,0,0,0-1.08-.4,1.5,1.5,0,0,0-1.5,1.36Z" transform="translate(-5.23 -63.62)"/><path class="cls-3" d="M157.27,82.49c.17.68.54,1,1.32,1s1.2-.29,1.2-.76a.61.61,0,0,0-.26-.5c-.19-.13-.25-.14-1.05-.32a6,6,0,0,1-1.44-.43,1.43,1.43,0,0,1-.88-1.33,1.49,1.49,0,0,1,.31-.93,2.44,2.44,0,0,1,2-.77,2.7,2.7,0,0,1,1.87.57,2,2,0,0,1,.54,1l-1.31.17c-.11-.55-.45-.79-1.1-.79s-1,.28-1,.7a.54.54,0,0,0,.31.47,4.21,4.21,0,0,0,1,.3,4.17,4.17,0,0,1,1.75.61,1.42,1.42,0,0,1,.58,1.24,1.64,1.64,0,0,1-.48,1.13,3,3,0,0,1-2.07.65,2.64,2.64,0,0,1-2.23-.89,2.25,2.25,0,0,1-.39-.89Z" transform="translate(-5.23 -63.62)"/><path class="cls-3" d="M163.11,81.75a1.86,1.86,0,0,0,.37,1.12,1.57,1.57,0,0,0,1.25.56,1.6,1.6,0,0,0,1.2-.5,1.62,1.62,0,0,0,.29-.52l1.17.38a2.69,2.69,0,0,1-2.66,1.69,3.06,3.06,0,0,1-.07-6.1A2.54,2.54,0,0,1,167.14,80a4.11,4.11,0,0,1,.29,1.52s0,0,0,.28Zm3-1a1.51,1.51,0,0,0-.43-1,1.43,1.43,0,0,0-1.08-.4,1.5,1.5,0,0,0-1.5,1.36Z" transform="translate(-5.23 -63.62)"/><path class="cls-3" d="M172.29,79.81a3,3,0,0,0-.89-.16,1.43,1.43,0,0,0-1.16.49,1.61,1.61,0,0,0-.41,1V83a10.52,10.52,0,0,0,.07,1.3h-1.43a11,11,0,0,0,.07-1.3V79.85a7.91,7.91,0,0,0-.07-1.3h1.36v.94a1.92,1.92,0,0,1,1.88-1,4.88,4.88,0,0,1,.92.1Z" transform="translate(-5.23 -63.62)"/><path class="cls-3" d="M175.14,84.29a4.76,4.76,0,0,0-.3-.89l-1.53-3.8c-.11-.26-.27-.63-.47-1h1.53a5.28,5.28,0,0,0,.25.93l1,2.9c.06.16.15.46.21.67.07-.22.15-.47.22-.67l1-2.9a5.3,5.3,0,0,0,.25-.93h1.51c-.14.28-.26.56-.45,1l-1.53,3.8a4.53,4.53,0,0,0-.3.89Z" transform="translate(-5.23 -63.62)"/><path class="cls-3" d="M183.38,83.64a2.26,2.26,0,0,1-1.06.63,3.54,3.54,0,0,1-.93.12c-1.22,0-2-.63-2-1.68a1.77,1.77,0,0,1,1.13-1.62,7.56,7.56,0,0,1,2.82-.4v-.51c0-.58-.4-.88-1.15-.88a1.8,1.8,0,0,0-1,.29,1.09,1.09,0,0,0-.4.64L179.51,80a2.13,2.13,0,0,1,.79-1.11,3.06,3.06,0,0,1,1.91-.51,2.57,2.57,0,0,1,2,.59,1.68,1.68,0,0,1,.47,1.38V83a8,8,0,0,0,.08,1.25h-1.34Zm0-2.08c-1.91,0-2.66.37-2.66,1.15,0,.47.35.76.91.76a2,2,0,0,0,1.38-.53,1.16,1.16,0,0,0,.37-.88Z" transform="translate(-5.23 -63.62)"/><path class="cls-3" d="M188,77a10.92,10.92,0,0,0-.07,1.23v.3h.42a7.21,7.21,0,0,0,1,0v1.17a5.58,5.58,0,0,0-1-.06H188v3.1c0,.49.18.67.66.67a1.35,1.35,0,0,0,.73-.22l.17,1.06a3,3,0,0,1-1.24.21c-1.15,0-1.61-.41-1.61-1.46V79.61h-.38a5,5,0,0,0-.89.06V78.5a5.69,5.69,0,0,0,.9,0h.37v-.3a11.51,11.51,0,0,0-.07-1.23Z" transform="translate(-5.23 -63.62)"/><path class="cls-3" d="M191.73,76.34v1.27h-1.47V76.34Zm0,2.21a9,9,0,0,0-.07,1.31V83a10,10,0,0,0,.07,1.31h-1.46a9,9,0,0,0,.08-1.3V79.85a8.22,8.22,0,0,0-.08-1.3Z" transform="translate(-5.23 -63.62)"/><path class="cls-3" d="M192.73,81.43a3,3,0,1,1,3,3A2.82,2.82,0,0,1,192.73,81.43Zm1.29,0c0,1.23.64,2,1.68,2s1.67-.75,1.67-2-.61-2-1.66-2S194,80.18,194,81.43Z" transform="translate(-5.23 -63.62)"/><path class="cls-3" d="M199.67,84.29a8.3,8.3,0,0,0,.08-1.3V79.85a8.22,8.22,0,0,0-.08-1.3H201v.53a3.91,3.91,0,0,1,0,.43,2.28,2.28,0,0,1,2-1.05,2,2,0,0,1,1.69.73,2.22,2.22,0,0,1,.34,1.4V83a7.9,7.9,0,0,0,.08,1.3h-1.45a10.63,10.63,0,0,0,.07-1.3V80.77a1.64,1.64,0,0,0-.17-.88.94.94,0,0,0-.84-.41c-.71,0-1.3.5-1.74,1.49v2a8.9,8.9,0,0,0,.08,1.3Z" transform="translate(-5.23 -63.62)"/><path class="cls-3" d="M50.85,77.72H47.29V76.19a.51.51,0,0,0-.51-.51H43.22a.51.51,0,0,0-.51.51v1.53H31.52V76.19a.51.51,0,0,0-.51-.51H27.45a.51.51,0,0,0-.51.51v1.53H23.38a.5.5,0,0,0-.51.5v27.47a.51.51,0,0,0,.51.51H50.85a.5.5,0,0,0,.5-.51V78.22A.5.5,0,0,0,50.85,77.72Zm-7.12-1h2.54v3H43.73v-3ZM28,76.7H30.5v3H28v-3Zm-4.07,2h3.05v1.53a.51.51,0,0,0,.51.51H31a.51.51,0,0,0,.51-.51V78.73H42.71v1.53a.51.51,0,0,0,.51.51h3.56a.51.51,0,0,0,.51-.51V78.73h3.05v4.58H23.89Zm0,26.45V84.33H50.34v20.85Z" transform="translate(-5.23 -63.62)"/><path class="cls-3" d="M41.18,87.38H27.45v14.75H46.78V87.38h-5.6Zm-3.56,1h3.56V92H37.62Zm3.56,8.13H37.62V93h3.56ZM33.05,93h3.56v3.56H33.05Zm0-4.57h3.56V92H33.05Zm-4.58,0H32V92H28.47Zm0,4.57H32v3.56H28.47ZM32,101.11H28.47V97.55H32Zm4.58,0H33.05V97.55h3.56Zm4.57,0H37.62V97.55h3.56Zm4.58,0H42.2V97.55h3.56Zm0-4.58H42.2V93h3.56Zm0-8.13V92H42.2V88.4Z" transform="translate(-5.23 -63.62)"/></svg>