<svg id="レイヤー_1" data-name="レイヤー 1" xmlns="http://www.w3.org/2000/svg" viewBox="0 0 47.13 44.24"><defs><style>.cls-1{fill:#fff;}</style></defs><title>icons8-line_main</title><path class="cls-1" d="M23.57,0C10.75,0,0,8.36,0,19.11c0,9.54,8.52,17.3,19.64,18.79h0a4.35,4.35,0,0,1,.83.26l.1-.06a8.37,8.37,0,0,1,0,1.1c0,.08-.26,1.51-.3,1.79h0a2.57,2.57,0,0,0,.3,2.25,2.4,2.4,0,0,0,1.68,1,3.94,3.94,0,0,0,1.91-.39A56.69,56.69,0,0,0,32.24,39,56.13,56.13,0,0,0,42,30.9h0l2.17-2.45h-.52c2.08-2.94,3.46-6,3.46-9.34C47.14,8.37,36.39,0,23.57,0Zm0,2.95c11.55,0,20.62,7.43,20.62,16.11,0,3.49-1.32,6.57-4.34,9.81l0,0a54.92,54.92,0,0,1-9.23,7.63A63.19,63.19,0,0,1,23.21,41l.22-1.3v0a4.72,4.72,0,0,0-.17-2.71h0a2.78,2.78,0,0,0-1.53-1.48A6.61,6.61,0,0,0,20.26,35h-.12C10.09,33.65,3,26.87,3,19.11,3,10.36,12,2.95,23.57,2.95ZM22.09,13.24a1.47,1.47,0,0,0-1.46,1.48h0v8.84a1.48,1.48,0,0,0,3,0h0V19.32l3.22,5.09a1.47,1.47,0,0,0,2.67-.85V14.72a1.48,1.48,0,0,0-3,0v4.39L23.3,13.84A1.43,1.43,0,0,0,22.09,13.24Zm-13.24,0A1.47,1.47,0,0,0,7.37,14.7s0,0,0,0v8.84A1.47,1.47,0,0,0,8.84,25h4.42a1.47,1.47,0,1,0,0-2.95h-3V14.72a1.47,1.47,0,0,0-1.47-1.47h0Zm8.84,0a1.47,1.47,0,0,0-1.47,1.47v8.84a1.48,1.48,0,0,0,3,0V14.72a1.47,1.47,0,0,0-1.47-1.47h0Zm14.73,0a1.47,1.47,0,0,0-1.47,1.47h0v8.84A1.47,1.47,0,0,0,32.42,25h4.42a1.47,1.47,0,1,0,0-2.95h-3V20.61h3a1.47,1.47,0,1,0,0-2.95h-3V16.19h3a1.47,1.47,0,1,0,0-2.95Z"/></svg>