<?xml version="1.0" encoding="utf-8"?>
<!-- Generator: Adobe Illustrator 18.1.1, SVG Export Plug-In . SVG Version: 6.00 Build 0)  -->
<!DOCTYPE svg PUBLIC "-//W3C//DTD SVG 1.1//EN" "http://www.w3.org/Graphics/SVG/1.1/DTD/svg11.dtd">
<svg version="1.1" id="レイヤー_1" xmlns="http://www.w3.org/2000/svg" xmlns:xlink="http://www.w3.org/1999/xlink" x="0px"
	 y="0px" viewBox="0 0 841.9 595.3" enable-background="new 0 0 841.9 595.3" xml:space="preserve">
<path fill="#FFFFFF" d="M420.9,9.3c159.3,0,288.3,129.1,288.3,288.3S580.2,586,420.9,586S132.6,456.9,132.6,297.6
	S261.7,9.3,420.9,9.3z M286.1,348.8h134.9v82.4c0,12.4,15.1,18.7,23.8,9.9l132.9-133.6c5.5-5.5,5.5-14.2,0-19.6L444.8,154.2
	c-8.8-8.8-23.8-2.6-23.8,9.9v82.4H286.1c-7.7,0-14,6.3-14,14v74.4C272.1,342.5,278.4,348.8,286.1,348.8z"/>
</svg>
