<svg id="レイヤー_1" data-name="レイヤー 1" xmlns="http://www.w3.org/2000/svg" viewBox="0 0 123.13 92.89"><title>1lesson</title><path d="M109.67,182.35c2.55-.09,2.87-.38,3.34-3.07l2.55-14.42c.47-2.69.29-3-2.15-3.07l.14-.77h9.21l-.13.77c-2.47.09-2.76.38-3.23,3.07l-3.07,17.4h2.72a6.89,6.89,0,0,0,5.6-2.27,12.43,12.43,0,0,0,2.08-3.93l1,.12-1.9,6.94H109.53Z" transform="translate(-109.53 -90.7)"/><path d="M127.81,182.35c2.4-.06,2.72-.35,3.2-3.07l2.54-14.42c.48-2.72.24-3-2.12-3.07l.14-.77h16.22l-.58,6.3-1,0c.1-4.11-1.22-5.47-5.39-5.47h-2.9l-1.63,9.28h2.13c3.19,0,4.06-.62,4.88-3.4h.94l-1.36,7.71h-.94c.15-2.87-.48-3.46-3.68-3.46H136.1l-1.81,10.25h3.25c4,0,5.91-1.53,7.58-6.14l1,.12-1.84,6.88H127.67Z" transform="translate(-109.53 -90.7)"/><path d="M149.34,176.18h1.18c-.37,4.43,1,6.53,4.34,6.53a4.69,4.69,0,0,0,4.89-4.08c.35-2-.59-3.22-4-5a18.24,18.24,0,0,1-3.5-2.1,4.5,4.5,0,0,1-1.6-4.7,7.53,7.53,0,0,1,4.46-5.52,9.58,9.58,0,0,1,3.91-.68,14.51,14.51,0,0,1,3.51.5,4.49,4.49,0,0,0,1,.12,5.43,5.43,0,0,0,1.85-.41l-1.4,6.61h-1.19a6.76,6.76,0,0,0-.35-3.69,3.7,3.7,0,0,0-3.66-2.33,4.52,4.52,0,0,0-4.52,3.84,3,3,0,0,0,.54,2.48c.61.71,1.27,1.15,3.44,2.27,2.41,1.21,3.54,2,4.37,3a4.93,4.93,0,0,1,.81,4.1,7.19,7.19,0,0,1-2.91,4.76,10,10,0,0,1-5.7,1.68,16.76,16.76,0,0,1-3.9-.5,6.48,6.48,0,0,0-1.11-.09,10,10,0,0,0-2,.27Z" transform="translate(-109.53 -90.7)"/><path d="M166.89,176.18h1.18c-.37,4.43,1,6.53,4.34,6.53a4.69,4.69,0,0,0,4.89-4.08c.35-2-.59-3.22-4-5a18.24,18.24,0,0,1-3.5-2.1,4.5,4.5,0,0,1-1.6-4.7,7.53,7.53,0,0,1,4.46-5.52,9.56,9.56,0,0,1,3.9-.68,14.51,14.51,0,0,1,3.52.5,4.49,4.49,0,0,0,1,.12,5.47,5.47,0,0,0,1.85-.41l-1.4,6.61h-1.19a6.76,6.76,0,0,0-.35-3.69,3.7,3.7,0,0,0-3.66-2.33,4.52,4.52,0,0,0-4.52,3.84,3,3,0,0,0,.53,2.48c.62.71,1.28,1.15,3.44,2.27,2.42,1.21,3.55,2,4.38,3a4.93,4.93,0,0,1,.81,4.1,7.23,7.23,0,0,1-2.91,4.76,10,10,0,0,1-5.7,1.68,16.76,16.76,0,0,1-3.9-.5,6.48,6.48,0,0,0-1.11-.09,10,10,0,0,0-2,.27Z" transform="translate(-109.53 -90.7)"/><path d="M188.88,164.07a11.73,11.73,0,0,1,8.53-3.49c3.28,0,5.89,1.24,7.27,3.49a11.43,11.43,0,0,1,1.1,8,15.35,15.35,0,0,1-3.93,8,11.85,11.85,0,0,1-8.5,3.48c-3.28,0-5.95-1.27-7.3-3.48a11.78,11.78,0,0,1-1.1-8A15.44,15.44,0,0,1,188.88,164.07Zm.49,16a4,4,0,0,0,4.12,2.78,6,6,0,0,0,5.07-2.78,19.44,19.44,0,0,0,2.91-8c.61-3.45.57-5.91-.11-7.92a3.9,3.9,0,0,0-4.09-2.77,6,6,0,0,0-5.1,2.77,19.51,19.51,0,0,0-2.9,7.92C188.66,175.53,188.7,178,189.37,180Z" transform="translate(-109.53 -90.7)"/><path d="M211.27,177.45c-.68,3.9-.3,4.73,2.22,4.87l-.14.8h-7.42l.14-.8c2.53-.11,3.33-1.09,4-5.11l2.07-11.73c.51-2.89.12-3.51-2.21-3.69l.13-.77h6.18l9,17,2-11.11c.39-2.21.43-3.31.14-4s-.88-1-2.37-1.12l.14-.8h7.47l-.14.8a3.1,3.1,0,0,0-2.71,1.12,8.68,8.68,0,0,0-1.28,3.78l-2.92,16.52h-2.18l-9.85-18.85Z" transform="translate(-109.53 -90.7)"/><path d="M152.34,146.08c3.51-.08,4.62-.23,5.95-.93,2-.92,3.1-2.92,4.48-7.85l10-35.43c1-3.93,1-3.93,1.07-4.62.18-1.69-.7-2.08-4.57-2.08h-2l.61-2.16c7.38-.61,13.13-1.38,18.4-2.31q-3,8.2-6.14,19.41l-7.64,27.19c-1.32,4.7-1.41,6.62-.35,7.7.83.85,1.69,1,5.54,1.08l-.61,2.16H151.73Z" transform="translate(-109.53 -90.7)"/></svg>