<svg id="レイヤー_1" data-name="レイヤー 1" xmlns="http://www.w3.org/2000/svg" viewBox="0 0 124.29 92.89"><title>1month</title><path d="M114.47,177.24c-.39,2.22-.43,3.28-.18,4s.89,1,2.35,1.12l-.14.77h-7.35l.13-.77c2.51-.14,3.28-1.15,4-5.11l2.2-12.44c.28-1.59.24-2.18-.2-2.57s-.69-.41-1.84-.44l.14-.77h7l3.54,16.66L133.63,161h6.77l-.14.77c-2.38.09-2.63.35-3.11,3.1l-2.55,14.42c-.47,2.69-.29,3,2.13,3l-.14.77h-9.13l.14-.77c2.4-.06,2.72-.35,3.19-3L133.67,163,122.6,182.56h-1.54l-4.12-19.32Z" transform="translate(-109.15 -90.7)"/><path d="M145,164.07a11.73,11.73,0,0,1,8.53-3.49c3.28,0,5.89,1.24,7.27,3.49a11.43,11.43,0,0,1,1.1,8,15.35,15.35,0,0,1-3.93,8,11.85,11.85,0,0,1-8.5,3.48c-3.28,0-5.95-1.27-7.3-3.48a11.78,11.78,0,0,1-1.1-8A15.44,15.44,0,0,1,145,164.07Zm.49,16a4,4,0,0,0,4.12,2.78,6,6,0,0,0,5.07-2.78,19.44,19.44,0,0,0,2.91-8c.61-3.45.57-5.91-.11-7.92a3.9,3.9,0,0,0-4.09-2.77,6,6,0,0,0-5.1,2.77,19.36,19.36,0,0,0-2.9,7.92C144.73,175.53,144.77,178,145.44,180Z" transform="translate(-109.15 -90.7)"/><path d="M167.34,177.45c-.68,3.9-.3,4.73,2.22,4.87l-.14.8H162l.14-.8c2.53-.11,3.32-1.09,4-5.11l2.07-11.73c.51-2.89.12-3.51-2.21-3.69l.13-.77h6.18l9,17,2-11.11c.39-2.21.43-3.31.14-4s-.88-1-2.37-1.12l.14-.8h7.47l-.14.8a3.1,3.1,0,0,0-2.71,1.12,8.55,8.55,0,0,0-1.28,3.78l-2.92,16.52H179.5l-9.85-18.85Z" transform="translate(-109.15 -90.7)"/><path d="M198.22,179.28c-.48,2.72-.24,3,2.53,3.07l-.14.77h-10l.13-.77c2.76-.06,3.11-.35,3.59-3.07l3.08-17.49c-2.64.06-4.11.53-5.35,1.71-1,.95-1.76,2.46-2.67,5.09l-1-.06,1.88-7.51h18.58l-.76,7.51-1.07.06c0-2.87-.29-4.41-1.1-5.32s-2.12-1.42-4.56-1.48Z" transform="translate(-109.15 -90.7)"/><path d="M214,179.28c-.48,2.72-.29,3,2.14,3.07l-.13.77h-9.19l.13-.77c2.44-.09,2.73-.35,3.21-3.07l2.54-14.45c.47-2.66.29-3-2-3l.13-.77h9l-.14.77c-2.35.09-2.64.38-3.11,3l-1.06,6.06h9.8l1.07-6.06c.47-2.66.28-3-2-3l.13-.77h9l-.13.77c-2.35.09-2.64.38-3.11,3l-2.55,14.45c-.48,2.72-.29,3,2.12,3.07l-.14.77h-9.18l.13-.77c2.47-.09,2.75-.35,3.23-3.07l1.31-7.41H215.3Z" transform="translate(-109.15 -90.7)"/><path d="M152.34,146.08c3.51-.08,4.62-.23,5.95-.93,2-.92,3.1-2.92,4.48-7.85l10-35.43c1-3.93,1-3.93,1.07-4.62.18-1.69-.7-2.08-4.57-2.08h-2l.61-2.16c7.38-.61,13.13-1.38,18.4-2.31q-3,8.2-6.14,19.41l-7.64,27.19c-1.32,4.7-1.41,6.62-.35,7.7.83.85,1.69,1,5.54,1.08l-.61,2.16H151.73Z" transform="translate(-109.15 -90.7)"/></svg>