<svg id="レイヤー_1" data-name="レイヤー 1" xmlns="http://www.w3.org/2000/svg" viewBox="0 0 121 65.81"><defs><style>.cls-1{fill:none;stroke:#000;stroke-miterlimit:10;stroke-width:2px;}</style></defs><title>2dayfree</title><path d="M147.38,120.68c2,0,2.21-.28,2.6-2.49L152,106.48c.39-2.21.2-2.47-1.72-2.5l.11-.62h7.23c2.73,0,4.79.43,6.05,1.32,2.13,1.44,2.84,3.79,2.21,7.36-.69,3.89-2.42,6.63-5.11,8a14.21,14.21,0,0,1-6.61,1.27h-6.93Zm7-.07a7.61,7.61,0,0,0,5.06-1.65c1.48-1.3,2.53-3.56,3.05-6.51.47-2.69.32-4.68-.45-6.16s-2.47-2.24-5-2.24h-1.44l-2.92,16.56Z" transform="translate(-97 -86.24)"/><path d="M171.08,117.06a7.53,7.53,0,0,0-.92,2.21c-.16.93.43,1.37,2,1.41l-.11.63h-6.17l.11-.63c1.57,0,2.6-1,4.17-3.79l7.5-13.53,1.81-.19,2.64,14.71c.29,1.48.61,2.25,1.11,2.54a3.47,3.47,0,0,0,1.23.26l-.11.63h-7.83l.11-.63c1.53,0,2.13-.36,2.27-1.15v-.07a5.57,5.57,0,0,0-.08-1.58l-.44-2.64h-6.32Zm5.8-10.56-4.3,7.8h5.66Z" transform="translate(-97 -86.24)"/><path d="M195.6,118.19c-.39,2.21-.21,2.42,2,2.49l-.11.63h-8l.11-.63c2.25-.07,2.5-.28,2.89-2.49l.81-4.56-3.14-7.27c-.77-1.78-1.21-2.23-2.32-2.38l.11-.62h7.56l-.11.62c-1.3.07-1.88.34-2,1-.07.4,0,.74.46,1.75l2.28,5.4,4.16-5.19a4.78,4.78,0,0,0,1-1.77.85.85,0,0,0-.62-1,5.05,5.05,0,0,0-1.35-.22l.11-.62h6.33l-.11.62c-1.59.17-2.63.91-4.44,3.15l-4.66,5.75Z" transform="translate(-97 -86.24)"/><path d="M120.76,147.69c-.54,3.05-.27,3.42,2.53,3.48l-.15.87H112.66l.16-.87c2.76-.1,3.08-.4,3.62-3.48l2.88-16.34c.55-3.08.28-3.45-2.4-3.48l.16-.87h18.38l-.72,6.93-1.19.1c0-4.52-1.58-6.06-6.2-6.06h-3.11l-1.87,10.58H125c3.55,0,4.62-.74,5.5-3.85h1.07L130,143.44h-1.07c.17-3.25-.51-3.92-4.13-3.92H122.2Z" transform="translate(-97 -86.24)"/><path d="M141.72,147.72c-.54,3.05-.33,3.35,2.4,3.45L144,152H133.59l.15-.87c2.77-.1,3.09-.4,3.62-3.45l2.89-16.37c.54-3,.32-3.35-2.26-3.48l.15-.87h10.24a15.38,15.38,0,0,1,6.32,1c1.93,1,2.62,2.62,2.18,5.09-.71,4-3.59,6.16-8.95,6.56l-.05.27a5.88,5.88,0,0,1,3.84,1.78c.94.93,1.32,2,2.27,5.72.77,3.05,1.22,3.69,2.77,3.82l-.14.8H150a57.84,57.84,0,0,0-1.89-9c-.71-2.07-1.62-2.78-3.76-2.78H143Zm3.3-8.47c4,0,6.48-2,7.14-5.76s-.94-5.52-4.92-5.52h-2l-2,11.28Z" transform="translate(-97 -86.24)"/><path d="M158,151.17c2.72-.06,3.08-.4,3.62-3.48l2.89-16.34c.54-3.08.27-3.45-2.4-3.48l.15-.87h18.38l-.66,7.13-1.17,0c.11-4.65-1.39-6.19-6.11-6.19h-3.28l-1.85,10.51H170c3.61,0,4.61-.7,5.53-3.85h1.07l-1.54,8.74H174c.17-3.25-.55-3.92-4.16-3.92h-2.41l-2,11.62h3.68c4.52,0,6.7-1.74,8.59-7l1.08.13-2.07,7.8H157.86Z" transform="translate(-97 -86.24)"/><path d="M180.12,151.17c2.72-.06,3.08-.4,3.62-3.48l2.88-16.34c.55-3.08.28-3.45-2.4-3.48l.16-.87h18.38l-.66,7.13-1.17,0c.11-4.65-1.39-6.19-6.11-6.19h-3.28l-1.85,10.51h2.41c3.61,0,4.61-.7,5.53-3.85h1.07l-1.54,8.74h-1.07c.17-3.25-.55-3.92-4.17-3.92h-2.41l-2,11.62h3.68c4.52,0,6.7-1.74,8.59-7l1.08.13-2.08,7.8H180Z" transform="translate(-97 -86.24)"/><line class="cls-1" y1="53.76" x2="10" y2="53.76"/><line class="cls-1" x1="111" y1="53.76" x2="121" y2="53.76"/><path d="M114.07,120.85a27.71,27.71,0,0,1,5.58-9c2.48-2.68,5.18-4.85,11.61-9.24a20.88,20.88,0,0,0,5-4.25,12.78,12.78,0,0,0,2.15-4.26c1.13-4-.27-6.65-3.5-6.65a5.79,5.79,0,0,0-5.1,3.1,15.61,15.61,0,0,0-1.69,4.2,3.28,3.28,0,0,1-3.62,2.54c-2.19,0-3-.78-2.54-2.45a11.57,11.57,0,0,1,5.6-6.51,16,16,0,0,1,8.14-2.08c6.87,0,10.07,3.19,8.56,8.55a11.9,11.9,0,0,1-3.68,5.82,28.07,28.07,0,0,1-6.07,3.79c-7,3.42-8.59,4.34-11.23,6.29a18.24,18.24,0,0,0-5.06,5.22h13.19c3.73,0,5.39-1.2,7.38-5.36l1.45.32-4.39,10Z" transform="translate(-97 -86.24)"/></svg>