<?xml version="1.0" encoding="utf-8"?>
<!-- Generator: Adobe Illustrator 22.0.1, SVG Export Plug-In . SVG Version: 6.00 Build 0)  -->
<svg version="1.1" id="Capa_1" xmlns="http://www.w3.org/2000/svg" xmlns:xlink="http://www.w3.org/1999/xlink" x="0px" y="0px"
	 viewBox="0 0 25.8 25.8" style="enable-background:new 0 0 25.8 25.8;" xml:space="preserve">
<style type="text/css">
	.st0{fill:#FFFFFF;}
</style>
<g>
	<g>
		<g>
			<path class="st0" d="M24.2,13.7v9.8H5.4v-9.8H24.2 M25.8,12.1h-22v13h22V12.1L25.8,12.1z"/>
		</g>
	</g>
	<g>
		<path class="st0" d="M19.8,12.1l2.3,2.3c0,0.1,0,0.2,0,0.2c0,0.7,0.6,1.3,1.3,1.3c0.1,0,0.2,0,0.2,0l2.3,2.3v-6H19.8z"/>
		<circle class="st0" cx="21.3" cy="18.6" r="1.3"/>
		<ellipse class="st0" cx="14.8" cy="18.6" rx="3.9" ry="3.4"/>
		<circle class="st0" cx="8.3" cy="18.6" r="1.3"/>
		<path class="st0" d="M3.8,18.1L6,15.9c0.1,0,0.2,0.1,0.2,0.1c0.7,0,1.3-0.6,1.3-1.3c0-0.1,0-0.2-0.1-0.2l2.3-2.3h-6V18.1z"/>
		<path class="st0" d="M7.6,22.6c0-0.7-0.6-1.3-1.3-1.3c-0.1,0-0.2,0-0.2,0l-2.3-2.3v6h6l-2.3-2.3C7.5,22.8,7.6,22.7,7.6,22.6z"/>
		<path class="st0" d="M23.3,21.3c-0.7,0-1.3,0.6-1.3,1.3c0,0.1,0,0.2,0,0.2l-2.3,2.3h6v-6l-2.3,2.3C23.4,21.4,23.4,21.3,23.3,21.3z
			"/>
	</g>
	<g>
		<circle class="st0" cx="18.5" cy="8.5" r="1.3"/>
		<path class="st0" d="M2.3,12.1c0-0.8,0.7-1.5,1.5-1.5h0.8l0-0.1l11.6-6.3l0.9,0.3c0,0.1,0,0.2,0.1,0.2c0.3,0.6,1.1,0.9,1.8,0.5
			c0.1,0,0.1-0.1,0.2-0.2L20,5.3L22,9l-0.3,0.9c-0.1,0-0.2,0-0.2,0.1c-0.3,0.2-0.5,0.4-0.6,0.7h3.8l-2.6-4.7h0l-2.9-5.3L14,3.5h0
			L5.3,8.3L0,11.2l2.3,4.1V12.1z"/>
		<path class="st0" d="M11.1,8.6c-0.9,0.5-1.5,1.2-1.9,2h7.2c-0.1-0.3-0.1-0.6-0.3-0.9C15.3,8.1,13,7.6,11.1,8.6z"/>
	</g>
</g>
</svg>
